#!OML:ASF X:\für Bonn\!DataBase\2005_08_10_Bjorn_Final\c3d\bjorn.ASF
:FULLY-SPECIFIED
:DEGREES
328
root 13.3633 19.1046 -0.0811117 -565.471 86.6238 -572.532
lowerback -3.56097 1.70835 -3.48726
upperback 3.13665 2.74301 -3.42255
thorax 5.26325 1.33622 -1.37481
lowerneck 4.40843 -2.52271 8.49373
upperneck 19.7274 -1.97963 -4.23705
head 5.07574 -0.287828 -2.78379
rclavicle -1.33186e-014 5.24792e-014
rhumerus -44.8787 -13.4867 -78.1766
rradius 42.5814
rwrist -9.77719
rhand -9.13292 10.7224
rfingers 7.12502
rthumb 16.8185 -18.5692
lclavicle -1.33186e-014 5.24792e-014
lhumerus -34.2186 5.78774 76.3326
lradius 38.2555
lwrist 47.5779
lhand 13.415 1.87534
lfingers 7.12502
lthumb 38.3577 27.5764
rfemur 1.93838 -6.70354 7.92899
rtibia 19.7314
rfoot -12.5026 18.9288
rtoes -5.81621
lfemur -17.0944 27.5487 -21.353
ltibia 32.6218
lfoot -11.7427 -31.3343
ltoes 6.13013
329
root 13.3813 19.1152 -0.0825318 -561.046 86.7605 -568.419
lowerback -3.94576 1.62835 -3.34251
upperback 2.95363 2.63083 -3.37108
thorax 5.29376 1.28185 -1.40132
lowerneck 4.32981 -2.4305 8.34545
upperneck 19.8325 -1.8676 -4.17501
head 5.13083 -0.238201 -2.7391
rclavicle 1.98785e-014 -4.77083e-014
rhumerus -45.2953 -14.4004 -77.7278
rradius 42.8329
rwrist -11.069
rhand -9.69152 11.1196
rfingers 7.12502
rthumb 16.2807 -18.2169
lclavicle 1.98785e-014 -4.77083e-014
lhumerus -34.239 8.54185 75.7722
lradius 38.3823
lwrist 47.6545
lhand 11.9436 0.530168
lfingers 7.12502
lthumb 36.9674 26.6031
rfemur 1.58138 -6.82804 8.28534
rtibia 19.8111
rfoot -12.2572 18.8319
rtoes -5.46412
lfemur -17.432 27.9354 -21.2041
ltibia 32.6428
lfoot -11.8186 -31.7454
ltoes 6.04321
330
root 13.3982 19.1253 -0.0843395 -556.384 86.8878 -564.069
lowerback -4.31208 1.56458 -3.17865
upperback 2.75378 2.53738 -3.3314
thorax 5.2972 1.23828 -1.45083
lowerneck 4.31217 -2.35378 8.22244
upperneck 19.924 -1.76672 -4.12755
head 5.17038 -0.19204 -2.70246
rclavicle 2.98177e-015 -2.38542e-015
rhumerus -45.704 -15.3039 -77.2832
rradius 42.9139
rwrist -12.3978
rhand -10.1578 11.5354
rfingers 7.12502
rthumb 15.8316 -17.8373
lclavicle 2.98177e-015 -2.38542e-015
lhumerus -34.3471 10.9408 75.3528
lradius 38.5793
lwrist 47.4886
lhand 9.55034 -0.526427
lfingers 7.12502
lthumb 34.6997 26.0992
rfemur 1.2158 -6.76344 8.64896
rtibia 19.8932
rfoot -11.9816 18.6944
rtoes -4.77558
lfemur -17.7747 28.2253 -21.0743
ltibia 32.6465
lfoot -11.9166 -32.0059
ltoes 5.68478
331
root 13.4146 19.1378 -0.0870376 -550.615 87.0096 -558.64
lowerback -4.71836 1.50267 -2.96892
upperback 2.57583 2.44455 -3.27357
thorax 5.34708 1.19561 -1.50661
lowerneck 4.18381 -2.2799 8.10839
upperneck 20.0844 -1.67399 -4.11201
head 5.24827 -0.150918 -2.67957
rclavicle -5.1684e-015 7.15625e-015
rhumerus -46.0367 -16.137 -76.8742
rradius 42.919
rwrist -13.9105
rhand -10.4461 11.8891
rfingers 7.12502
rthumb 15.554 -17.5054
lclavicle -5.1684e-015 7.15625e-015
lhumerus -34.3615 12.8779 75.1189
lradius 38.7349
lwrist 47.4347
lhand 6.47747 -1.73164
lfingers 7.12502
lthumb 31.7782 25.5185
rfemur 0.818391 -6.59666 9.06293
rtibia 19.9643
rfoot -11.733 18.4881
rtoes -4.35436
lfemur -18.1447 28.377 -20.9177
ltibia 32.64
lfoot -11.9772 -32.1155
ltoes 5.68674
332
root 13.4318 19.1494 -0.089184 -544.218 87.1465 -552.583
lowerback -5.15961 1.4465 -2.7566
upperback 2.41109 2.35942 -3.20083
thorax 5.42988 1.15621 -1.5476
lowerneck 4.01134 -2.19885 7.9927
upperneck 20.2976 -1.56474 -4.14597
head 5.35003 -0.103863 -2.67257
rclavicle 5.36719e-015 2.46493e-014
rhumerus -46.289 -16.7652 -76.5715
rradius 42.8525
rwrist -15.6546
rhand -10.7175 12.159
rfingers 7.12502
rthumb 15.2926 -17.2556
lclavicle 5.36719e-015 2.46493e-014
lhumerus -34.3136 14.5755 74.9961
lradius 38.7568
lwrist 47.1516
lhand 3.03684 -3.07862
lfingers 7.12502
lthumb 28.4958 24.7707
rfemur 0.420006 -6.45852 9.46713
rtibia 20.0366
rfoot -11.5068 18.419
rtoes -4.01208
lfemur -18.5004 28.3201 -20.7408
ltibia 32.6138
lfoot -12.1204 -31.9658
ltoes 5.44039
333
root 13.4481 19.1613 -0.0920916 -536.993 87.2604 -545.651
lowerback -5.52487 1.42073 -2.50169
upperback 2.24616 2.30757 -3.14126
thorax 5.47131 1.13581 -1.62559
lowerneck 3.84545 -2.1529 7.96827
upperneck 20.5273 -1.48875 -4.25483
head 5.45209 -0.0700092 -2.7056
rclavicle -2.98177e-015 -2.78299e-014
rhumerus -46.573 -17.3983 -76.2896
rradius 42.7981
rwrist -17.5242
rhand -10.7548 12.2597
rfingers 7.12502
rthumb 15.2567 -17.1577
lclavicle -2.98177e-015 -2.78299e-014
lhumerus -34.1879 16.2225 74.8704
lradius 38.619
lwrist 46.4231
lhand -0.597286 -4.37519
lfingers 7.12502
lthumb 25.0182 24.0065
rfemur 0.0654988 -6.19743 9.88266
rtibia 20.1041
rfoot -11.3143 18.2891
rtoes -3.74505
lfemur -18.7824 28.018 -20.504
ltibia 32.5686
lfoot -12.1342 -31.5863
ltoes 5.69531
334
root 13.4638 19.1736 -0.0954103 -529.043 87.3369 -537.961
lowerback -5.86399 1.39334 -2.23254
upperback 2.10295 2.24996 -3.06718
thorax 5.52012 1.1127 -1.69808
lowerneck 3.7051 -2.09514 7.89803
upperneck 20.7022 -1.40211 -4.32941
head 5.53454 -0.034379 -2.71869
rclavicle 1.11319e-014 -3.73715e-014
rhumerus -46.7848 -17.9275 -76.032
rradius 42.7239
rwrist -19.4963
rhand -10.5708 12.2444
rfingers 7.12502
rthumb 15.434 -17.1594
lclavicle 1.11319e-014 -3.73715e-014
lhumerus -34.0002 17.8043 74.8079
lradius 38.4049
lwrist 45.4027
lhand -4.33391 -5.51109
lfingers 7.12502
lthumb 21.4333 23.3233
rfemur -0.259721 -5.96002 10.298
rtibia 20.1831
rfoot -11.2067 18.1986
rtoes -4.04806
lfemur -19.0104 27.4074 -20.2191
ltibia 32.505
lfoot -12.1803 -30.9073
ltoes 5.88867
335
root 13.4784 19.1841 -0.0993331 -520.794 87.3684 -529.907
lowerback -6.13679 1.36477 -1.94611
upperback 1.99854 2.1878 -3.00115
thorax 5.57244 1.08846 -1.79098
lowerneck 3.56201 -2.02579 7.85361
upperneck 20.8268 -1.30179 -4.41865
head 5.60229 0.00627401 -2.73967
rclavicle 2.94201e-014 -7.15625e-015
rhumerus -46.9438 -18.4616 -75.8031
rradius 42.6361
rwrist -21.3528
rhand -10.2216 12.096
rfingers 7.12502
rthumb 15.7702 -17.2815
lclavicle 2.94201e-014 -7.15625e-015
lhumerus -33.7744 19.2903 74.7402
lradius 38.1772
lwrist 44.063
lhand -8.27131 -6.13659
lfingers 7.12502
lthumb 17.6478 23.0825
rfemur -0.526769 -5.76182 10.6758
rtibia 20.2729
rfoot -10.9557 18.2456
rtoes -3.77181
lfemur -19.1435 26.5345 -19.883
ltibia 32.416
lfoot -12.2348 -29.9806
ltoes 6.18685
336
root 13.493 19.1931 -0.10306 -512.659 87.3485 -521.912
lowerback -6.33513 1.358 -1.65542
upperback 1.88706 2.15104 -2.9461
thorax 5.57567 1.07759 -1.89707
lowerneck 3.50965 -1.98998 7.83612
upperneck 20.9232 -1.23851 -4.50216
head 5.64386 0.032568 -2.7632
rclavicle -5.96354e-016 -2.54444e-014
rhumerus -47.1335 -19.0588 -75.525
rradius 42.5009
rwrist -22.8758
rhand -9.75362 11.7948
rfingers 7.12502
rthumb 16.2209 -17.5466
lclavicle -5.96354e-016 -2.54444e-014
lhumerus -33.5307 20.5314 74.7462
lradius 37.8532
lwrist 42.2213
lhand -12.4752 -6.24579
lfingers 7.12502
lthumb 13.599 23.29
rfemur -0.751094 -5.66954 11.021
rtibia 20.3884
rfoot -10.7194 18.3952
rtoes -3.85254
lfemur -19.1832 25.6676 -19.5157
ltibia 32.3
lfoot -12.3374 -29.031
ltoes 6.27593
337
root 13.5076 19.2023 -0.10688 -506.153 87.3335 -515.498
lowerback -6.49625 1.34177 -1.46563
upperback 1.82284 2.11031 -2.88526
thorax 5.60322 1.06137 -1.94168
lowerneck 3.48014 -1.9343 7.73509
upperneck 20.877 -1.16203 -4.54996
head 5.63847 0.0555748 -2.75875
rclavicle 8.54774e-015 -1.59028e-015
rhumerus -47.2287 -19.4594 -75.3288
rradius 42.3723
rwrist -24.2601
rhand -9.2882 11.3894
rfingers 7.12502
rthumb 16.669 -17.9149
lclavicle 8.54774e-015 -1.59028e-015
lhumerus -33.1731 21.5638 74.8733
lradius 37.3636
lwrist 39.9028
lhand -16.7356 -5.91169
lfingers 7.12502
lthumb 9.49049 23.8546
rfemur -0.942563 -5.47865 11.2752
rtibia 20.5182
rfoot -10.4699 18.5118
rtoes -3.81863
lfemur -19.1502 24.7051 -19.2056
ltibia 32.1633
lfoot -12.3956 -27.9827
ltoes 6.61311
338
root 13.5218 19.2105 -0.111178 -501.597 87.3231 -510.977
lowerback -6.60075 1.31639 -1.35789
upperback 1.79272 2.06585 -2.84804
thorax 5.63219 1.04153 -1.96643
lowerneck 3.44999 -1.88537 7.6567
upperneck 20.8119 -1.09334 -4.61919
head 5.62628 0.0743881 -2.76496
rclavicle 9.14409e-015 4.21423e-014
rhumerus -47.2491 -19.8222 -75.1915
rradius 42.1388
rwrist -25.2992
rhand -8.90075 11.0367
rfingers 7.12502
rthumb 17.042 -18.2358
lclavicle 9.14409e-015 4.21423e-014
lhumerus -32.7308 22.4098 75.0643
lradius 36.6925
lwrist 37.0146
lhand -20.6178 -5.25354
lfingers 7.12502
lthumb 5.74332 24.6486
rfemur -1.08521 -5.34917 11.4152
rtibia 20.6706
rfoot -10.2066 18.661
rtoes -3.99513
lfemur -19.0261 23.6888 -18.9646
ltibia 32.0051
lfoot -12.5216 -26.9145
ltoes 6.73936
339
root 13.5353 19.2163 -0.11512 -498.713 87.3685 -508.068
lowerback -6.65009 1.28821 -1.34514
upperback 1.79866 2.02867 -2.84635
thorax 5.66594 1.02342 -1.97508
lowerneck 3.40754 -1.84229 7.60109
upperneck 20.7192 -1.03578 -4.697
head 5.60654 0.0874947 -2.77785
rclavicle -1.39149e-015 -1.03368e-014
rhumerus -47.1756 -20.1942 -75.0769
rradius 41.7269
rwrist -25.891
rhand -8.55616 10.6836
rfingers 7.12502
rthumb 17.3736 -18.5599
lclavicle -1.39149e-015 -1.03368e-014
lhumerus -32.1593 22.9892 75.2973
lradius 35.7905
lwrist 33.6883
lhand -23.8684 -4.3286
lfingers 7.12502
lthumb 2.60448 25.6352
rfemur -1.16222 -5.18728 11.4313
rtibia 20.8363
rfoot -9.97558 18.8656
rtoes -4.23515
lfemur -18.83 22.7705 -18.8128
ltibia 31.8337
lfoot -12.6308 -25.9323
ltoes 6.91233
340
root 13.5473 19.2204 -0.119793 -496.313 87.4407 -505.581
lowerback -6.63124 1.27155 -1.36823
upperback 1.84792 2.01061 -2.8559
thorax 5.7061 1.01411 -1.97429
lowerneck 3.32033 -1.81007 7.60449
upperneck 20.6088 -0.995246 -4.81135
head 5.58685 0.0926477 -2.81307
rclavicle 1.64991e-014 -1.35174e-014
rhumerus -46.9568 -20.6831 -74.8954
rradius 41.0234
rwrist -25.845
rhand -8.10749 10.4967
rfingers 7.12502
rthumb 17.8054 -18.7082
lclavicle 1.64991e-014 -1.35174e-014
lhumerus -31.4663 23.325 75.5799
lradius 34.6464
lwrist 29.9351
lhand -26.5663 -3.373
lfingers 7.12502
lthumb -0.00122455 26.6067
rfemur -1.16953 -4.88272 11.4208
rtibia 21.0019
rfoot -9.93438 18.9535
rtoes -5.4957
lfemur -18.5652 21.8856 -18.6925
ltibia 31.669
lfoot -12.8293 -24.9571
ltoes 6.84512
341
root 13.559 19.2231 -0.124343 -493.719 87.538 -502.907
lowerback -6.60264 1.25595 -1.3997
upperback 1.87935 1.99454 -2.87576
thorax 5.72216 1.0058 -1.9796
lowerneck 3.24197 -1.78788 7.66643
upperneck 20.526 -0.953286 -5.00364
head 5.57304 0.0993566 -2.88329
rclavicle 3.18055e-015 1.82882e-014
rhumerus -46.6335 -21.2412 -74.6341
rradius 39.9334
rwrist -25.0765
rhand -7.6457 10.4446
rfingers 7.12502
rthumb 18.2497 -18.7193
lclavicle 3.18055e-015 1.82882e-014
lhumerus -30.741 23.4396 75.8528
lradius 33.2943
lwrist 25.7586
lhand -28.8759 -1.82552
lfingers 7.12502
lthumb -2.23185 28.1426
rfemur -1.17789 -4.63282 11.375
rtibia 21.1448
rfoot -9.90648 19.1027
rtoes -7.21089
lfemur -18.3169 20.8794 -18.592
ltibia 31.53
lfoot -13.0207 -23.8609
ltoes 6.97301
342
root 13.5685 19.223 -0.128741 -491.132 87.6265 -500.205
lowerback -6.54772 1.23011 -1.46176
upperback 1.96036 1.96659 -2.86792
thorax 5.77296 0.98989 -1.94044
lowerneck 3.10166 -1.74754 7.6902
upperneck 20.4292 -0.89728 -5.18045
head 5.56659 0.108767 -2.94196
rclavicle -1.98785e-014 -1.59028e-015
rhumerus -46.0852 -21.8724 -74.3268
rradius 38.5045
rwrist -23.6266
rhand -7.27552 10.4398
rfingers 7.12502
rthumb 18.6058 -18.6904
lclavicle -1.98785e-014 -1.59028e-015
lhumerus -29.8725 23.3747 76.2232
lradius 31.7583
lwrist 21.2311
lhand -30.9268 0.099617
lfingers 7.12502
lthumb -4.21249 30.0377
rfemur -1.13684 -4.26207 11.3382
rtibia 21.2755
rfoot -9.85941 19.2119
rtoes -8.53727
lfemur -18.0624 20.0478 -18.5008
ltibia 31.4203
lfoot -13.2558 -22.9175
ltoes 6.82106
